<mxfile host="app.diagrams.net" modified="2023-10-30T23:40:45.333Z" agent="Mozilla/5.0 (Windows NT 10.0; Win64; x64) AppleWebKit/537.36 (KHTML, like Gecko) Chrome/118.0.0.0 Safari/537.36" etag="IF8TVDGkKt32BqegPW7m" version="22.0.8" type="github">
  <diagram name="Page-1" id="LRIbFOL1qCA9mUi7F0Uk">
    <mxGraphModel dx="1050" dy="662" grid="1" gridSize="10" guides="1" tooltips="1" connect="1" arrows="1" fold="1" page="1" pageScale="1" pageWidth="850" pageHeight="1100" math="0" shadow="0">
      <root>
        <mxCell id="0" />
        <mxCell id="1" parent="0" />
        <mxCell id="lTyLxRFLAO4KO6h8ens8-1" value="" style="swimlane;startSize=0;fillColor=#f8cecc;strokeColor=#000000;" vertex="1" parent="1">
          <mxGeometry x="160" y="140" width="610" height="400" as="geometry" />
        </mxCell>
        <mxCell id="lTyLxRFLAO4KO6h8ens8-2" value="" style="rounded=1;whiteSpace=wrap;html=1;" vertex="1" parent="lTyLxRFLAO4KO6h8ens8-1">
          <mxGeometry x="45" y="40" width="520" height="60" as="geometry" />
        </mxCell>
        <mxCell id="lTyLxRFLAO4KO6h8ens8-3" value="" style="ellipse;whiteSpace=wrap;html=1;aspect=fixed;fillColor=#000000;" vertex="1" parent="lTyLxRFLAO4KO6h8ens8-1">
          <mxGeometry x="70" y="150" width="40" height="40" as="geometry" />
        </mxCell>
        <mxCell id="lTyLxRFLAO4KO6h8ens8-4" value="" style="ellipse;whiteSpace=wrap;html=1;aspect=fixed;strokeColor=#000000;fillColor=#FFFFFF;" vertex="1" parent="lTyLxRFLAO4KO6h8ens8-1">
          <mxGeometry x="70" y="250" width="40" height="40" as="geometry" />
        </mxCell>
        <mxCell id="lTyLxRFLAO4KO6h8ens8-6" value="&lt;font style=&quot;font-size: 19px;&quot;&gt;&lt;b&gt;What Design of Parachute?&lt;/b&gt;&lt;/font&gt;" style="text;html=1;strokeColor=none;fillColor=none;align=center;verticalAlign=middle;whiteSpace=wrap;rounded=0;" vertex="1" parent="lTyLxRFLAO4KO6h8ens8-1">
          <mxGeometry x="80" y="55" width="450" height="30" as="geometry" />
        </mxCell>
        <mxCell id="lTyLxRFLAO4KO6h8ens8-7" value="" style="rounded=1;whiteSpace=wrap;html=1;" vertex="1" parent="lTyLxRFLAO4KO6h8ens8-1">
          <mxGeometry x="130" y="152.5" width="380" height="35" as="geometry" />
        </mxCell>
        <mxCell id="lTyLxRFLAO4KO6h8ens8-8" value="" style="rounded=1;whiteSpace=wrap;html=1;" vertex="1" parent="lTyLxRFLAO4KO6h8ens8-1">
          <mxGeometry x="130" y="252.5" width="380" height="35" as="geometry" />
        </mxCell>
        <mxCell id="lTyLxRFLAO4KO6h8ens8-9" value="&lt;font style=&quot;font-size: 16px;&quot;&gt;&lt;b&gt;BICNONICAL&lt;/b&gt;&lt;/font&gt;" style="text;html=1;strokeColor=none;fillColor=none;align=center;verticalAlign=middle;whiteSpace=wrap;rounded=0;strokeWidth=3;" vertex="1" parent="lTyLxRFLAO4KO6h8ens8-1">
          <mxGeometry x="105" y="155" width="430" height="30" as="geometry" />
        </mxCell>
        <mxCell id="lTyLxRFLAO4KO6h8ens8-10" value="&lt;span style=&quot;font-size: 16px;&quot;&gt;&lt;b&gt;RIBBON&lt;/b&gt;&lt;/span&gt;" style="text;html=1;strokeColor=none;fillColor=none;align=center;verticalAlign=middle;whiteSpace=wrap;rounded=0;strokeWidth=3;" vertex="1" parent="lTyLxRFLAO4KO6h8ens8-1">
          <mxGeometry x="105" y="255" width="430" height="30" as="geometry" />
        </mxCell>
        <mxCell id="lTyLxRFLAO4KO6h8ens8-11" value="" style="shape=step;perimeter=stepPerimeter;whiteSpace=wrap;html=1;fixedSize=1;" vertex="1" parent="lTyLxRFLAO4KO6h8ens8-1">
          <mxGeometry x="440" y="340" width="150" height="40" as="geometry" />
        </mxCell>
        <mxCell id="lTyLxRFLAO4KO6h8ens8-12" value="&lt;b&gt;&lt;font style=&quot;font-size: 17px;&quot;&gt;SELECT&lt;/font&gt;&lt;/b&gt;" style="text;html=1;strokeColor=none;fillColor=none;align=center;verticalAlign=middle;whiteSpace=wrap;rounded=0;" vertex="1" parent="lTyLxRFLAO4KO6h8ens8-1">
          <mxGeometry x="485" y="345" width="60" height="30" as="geometry" />
        </mxCell>
        <mxCell id="lTyLxRFLAO4KO6h8ens8-13" value="" style="endArrow=classic;html=1;rounded=0;entryX=0;entryY=0.5;entryDx=0;entryDy=0;" edge="1" parent="lTyLxRFLAO4KO6h8ens8-1" target="lTyLxRFLAO4KO6h8ens8-3">
          <mxGeometry width="50" height="50" relative="1" as="geometry">
            <mxPoint x="-20" y="200" as="sourcePoint" />
            <mxPoint x="60" y="185" as="targetPoint" />
          </mxGeometry>
        </mxCell>
        <mxCell id="lTyLxRFLAO4KO6h8ens8-14" value="" style="endArrow=classic;html=1;rounded=0;entryX=0;entryY=0;entryDx=0;entryDy=0;" edge="1" parent="1" target="lTyLxRFLAO4KO6h8ens8-4">
          <mxGeometry width="50" height="50" relative="1" as="geometry">
            <mxPoint x="140" y="340" as="sourcePoint" />
            <mxPoint x="230" y="335" as="targetPoint" />
          </mxGeometry>
        </mxCell>
        <mxCell id="lTyLxRFLAO4KO6h8ens8-15" value="Buttons that highlight if selected. Can only select one option." style="text;html=1;strokeColor=none;fillColor=none;align=center;verticalAlign=middle;whiteSpace=wrap;rounded=0;" vertex="1" parent="1">
          <mxGeometry x="40" y="277.5" width="100" height="125" as="geometry" />
        </mxCell>
        <mxCell id="lTyLxRFLAO4KO6h8ens8-18" value="" style="endArrow=classic;html=1;rounded=0;entryX=0.25;entryY=1;entryDx=0;entryDy=0;" edge="1" parent="1" target="lTyLxRFLAO4KO6h8ens8-11">
          <mxGeometry width="50" height="50" relative="1" as="geometry">
            <mxPoint x="580" y="570" as="sourcePoint" />
            <mxPoint x="630" y="520" as="targetPoint" />
          </mxGeometry>
        </mxCell>
        <mxCell id="lTyLxRFLAO4KO6h8ens8-19" value="" style="endArrow=classic;html=1;rounded=0;entryX=0.5;entryY=0;entryDx=0;entryDy=0;" edge="1" parent="1" target="lTyLxRFLAO4KO6h8ens8-6">
          <mxGeometry width="50" height="50" relative="1" as="geometry">
            <mxPoint x="510" y="120" as="sourcePoint" />
            <mxPoint x="520" y="80" as="targetPoint" />
          </mxGeometry>
        </mxCell>
        <mxCell id="lTyLxRFLAO4KO6h8ens8-20" value="Title Block" style="text;html=1;strokeColor=none;fillColor=none;align=center;verticalAlign=middle;whiteSpace=wrap;rounded=0;" vertex="1" parent="1">
          <mxGeometry x="510" y="90" width="60" height="30" as="geometry" />
        </mxCell>
        <mxCell id="lTyLxRFLAO4KO6h8ens8-21" value="Button to move to next page" style="text;html=1;strokeColor=none;fillColor=none;align=center;verticalAlign=middle;whiteSpace=wrap;rounded=0;" vertex="1" parent="1">
          <mxGeometry x="520" y="570" width="90" height="30" as="geometry" />
        </mxCell>
      </root>
    </mxGraphModel>
  </diagram>
</mxfile>
